Coordinates
version=1
nRows=24
nColumns=24
inDegrees=yes

Units are S.I. units (second, meters, Newtons, ...)
Angles are in degrees.

endheader
time	pelvis_tilt	pelvis_list	pelvis_rotation	pelvis_tx	pelvis_ty	pelvis_tz	hip_flexion_r	hip_adduction_r	hip_rotation_r	knee_angle_r	ankle_angle_r	subtalar_angle_r	mtp_angle_r	hip_flexion_l	hip_adduction_l	hip_rotation_l	knee_angle_l	ankle_angle_l	subtalar_angle_l	mtp_angle_l	lumbar_extension	lumbar_bending	lumbar_rotation
      1.30650000	     -0.76930875	      1.17066236	     -0.14215840	      0.20399084	      1.01042860	      0.30866938	     18.86964503	      0.84309936	     -0.26771871	    -66.19393359	     -9.55012755	    -17.43121619	      2.08628587	      7.19920790	      5.54565952	      2.12428940	     -6.74182370	     -4.41136053	    -15.96350994	      2.92468236	     -2.63485018	      0.87743945	      2.30156517
      1.31066667	     -0.71438600	      1.08029887	     -0.14067030	      0.20891858	      1.01107961	      0.30855083	     19.34901870	      0.96397816	     -0.16953004	    -65.94084521	     -8.80781585	    -17.67497055	      2.05923889	      6.69888563	      5.45604845	      2.20316383	     -6.51152019	     -4.25656485	    -15.95661026	      2.91099794	     -2.71919109	      0.99483066	      2.25671297
      1.31483333	     -0.65914570	      0.97331724	     -0.12704629	      0.21385587	      1.01170951	      0.30842420	     19.80390761	      1.09656466	     -0.08978244	    -65.61880581	     -8.08903965	    -17.89394183	      2.03457633	      6.19925485	      5.34816718	      2.28173919	     -6.28412044	     -4.09296476	    -15.94966342	      2.89783164	     -2.78278449	      1.12323545	      2.21330614
      1.31900000	     -0.59362423	      0.87490052	     -0.11589657	      0.21873679	      1.01231952	      0.30830507	     20.24094601	      1.22219729	     -0.00122721	    -65.25525585	     -7.39079487	    -18.12775020	      1.99670982	      5.69288089	      5.24947195	      2.37964721	     -6.05898080	     -3.93706533	    -15.93375431	      2.87781383	     -2.90472331	      1.25191087	      2.15475843
      1.32316667	     -0.51992644	      0.78159453	     -0.09889372	      0.22362605	      1.01291152	      0.30818353	     20.64897208	      1.33654204	      0.07819876	    -64.83488372	     -6.71233242	    -18.35432891	      1.94185760	      5.17563577	      5.15486544	      2.47128768	     -5.82871940	     -3.77742454	    -15.92615502	      2.84855621	     -3.01504269	      1.35905498	      2.08612949
      1.32733333	     -0.49448015	      0.67084335	     -0.07265404	      0.22851180	      1.01340146	      0.30803479	     21.09332261	      1.46087405	      0.13974054	    -64.35952851	     -6.07792866	    -18.52309097	      1.90822233	      4.72137238	      5.04307224	      2.55747747	     -5.61833915	     -3.60882892	    -15.91770592	      2.82970712	     -3.05681296	      1.51706191	      2.04379889
      1.33150000	     -0.41864286	      0.56567032	     -0.04195241	      0.23336989	      1.01394515	      0.30791873	     21.46166243	      1.58545464	      0.21006118	    -63.82574241	     -5.44168692	    -18.71206669	      1.85489518	      4.21457340	      4.93333232	      2.65281931	     -5.40886785	     -3.44049847	    -15.89839544	      2.80059563	     -3.17353624	      1.62951297	      1.97261887
      1.33566667	     -0.33551814	      0.47187791	     -0.01478366	      0.23822382	      1.01444392	      0.30778767	     21.81205230	      1.68794092	      0.27093346	    -63.25437397	     -4.85941548	    -18.89931209	      1.75164539	      3.69098230	      4.83637094	      2.74320907	     -5.17769057	     -3.26523308	    -15.87243535	      2.74527859	     -3.30351708	      1.75261426	      1.87203585
      1.33983333	     -0.32557858	      0.35979147	      0.02712380	      0.24305975	      1.01481601	      0.30764106	     22.22453220	      1.80535011	      0.31896852	    -62.62787832	     -4.31324046	    -19.01009538	      1.71185103	      3.26818834	      4.71936561	      2.83636588	     -4.98683582	     -3.08653368	    -15.85143237	      2.72391149	     -3.34379890	      1.90903377	      1.83769929
      1.34400000	     -0.28442895	      0.25381830	      0.07829820	      0.24788089	      1.01520659	      0.30750661	     22.58015057	      1.91826326	      0.36920031	    -61.94587593	     -3.75932317	    -19.14343657	      1.65807547	      2.81783090	      4.60614558	      2.93084617	     -4.80619255	     -2.90419928	    -15.82255801	      2.69589438	     -3.41663671	      2.02645528	      1.76956119
      1.34816667	     -0.23894493	      0.16194467	      0.12743390	      0.25269027	      1.01555416	      0.30737490	     22.91969341	      2.01136936	      0.41667406	    -61.22653577	     -3.25017377	    -19.26012425	      1.59462912	      2.35946344	      4.50705528	      3.02045260	     -4.61438119	     -2.71644765	    -15.78440442	      2.66404461	     -3.49886951	      2.13996670	      1.68949674
      1.35233333	     -0.18756843	      0.05455169	      0.18354889	      0.25749849	      1.01589241	      0.30722667	     23.22966402	      2.11562723	      0.45218923	    -60.44843778	     -2.78588677	    -19.36684075	      1.52971283	      1.89723182	      4.39033449	      3.10777554	     -4.42649648	     -2.52633250	    -15.73649924	      2.63255962	     -3.59155479	      2.27523487	      1.61130286
      1.35650000	     -0.14989745	     -0.03034781	      0.23876125	      0.26228572	      1.01615390	      0.30709069	     23.54544854	      2.19462898	      0.49181576	    -59.64072988	     -2.35275695	    -19.45579372	      1.46409520	      1.45468956	      4.29632818	      3.19439111	     -4.24430005	     -2.33029074	    -15.68905045	      2.60215780	     -3.67048975	      2.38285603	      1.53258511
      1.36066667	     -0.07244353	     -0.10500079	      0.29171743	      0.26707739	      1.01644143	      0.30695827	     23.79813364	      2.25963644	      0.52993729	    -58.78539983	     -1.97130931	    -19.55664319	      1.32253600	      0.95881298	      4.21072527	      3.26618472	     -4.03966244	     -2.12883219	    -15.61202081	      2.53749348	     -3.80502136	      2.47535520	      1.39307359
      1.36483333	     -0.06195452	     -0.19312258	      0.36590335	      0.27185057	      1.01662574	      0.30680886	     24.10027540	      2.33499355	      0.55513257	    -57.87388191	     -1.60319089	    -19.61772865	      1.25110872	      0.55992919	      4.11089591	      3.36401330	     -3.88306204	     -1.93970851	    -15.56714727	      2.50763312	     -3.84420949	      2.59120726	      1.34550902
      1.36900000	     -0.02299543	     -0.29073679	      0.44197495	      0.27661764	      1.01681475	      0.30668216	     24.35158567	      2.42333546	      0.57159740	    -56.91406723	     -1.31981438	    -19.77896024	     -0.43756436	      0.13968047	      3.99518114	      3.40700979	     -3.74650799	     -1.63614033	    -15.38081195	      1.79007778	     -3.92992207	      2.71590588	      1.04841131
      1.37316667	      0.03264309	     -0.35075078	      0.50319889	      0.28139437	      1.01696625	      0.30653598	     24.57500186	      2.46171660	      0.59913328	    -55.93638021	     -0.97995953	    -19.75017059	     -0.50907512	     -0.33797093	      3.92364723	      3.51330043	     -3.52534037	     -1.50658750	    -15.37646506	      1.77302490	     -4.03897819	      2.78461470	      1.11682632
      1.37733333	      0.02485253	     -0.40924469	      0.58491996	      0.28614336	      1.01700896	      0.30637833	     24.84810913	      2.49423548	      0.61317977	    -54.91127084	     -0.70573653	    -19.79183591	     -0.54526174	     -0.71382517	      3.85298306	      3.61386515	     -3.36909507	     -1.32624695	    -15.33586951	      1.76786296	     -4.06030641	      2.86464414	      1.08242143
      1.38150000	      0.05948991	     -0.48289091	      0.66949649	      0.29090180	      1.01709209	      0.30622390	     25.04803290	      2.54080174	      0.61470735	    -53.82896017	     -0.47896274	    -19.84983402	     -0.59237291	     -1.14181818	      3.76258887	      3.70366967	     -3.20126407	     -1.13007589	    -15.27210687	      1.76177193	     -4.13729028	      2.96247613	      1.00628215
      1.38566667	      0.12520087	     -0.53602403	      0.73855326	      0.29566012	      1.01717379	      0.30610788	     25.20020621	      2.57197924	      0.62849104	    -52.71478645	     -0.32673403	    -19.94768743	     -0.69400847	     -1.61541992	      3.69041138	      3.75931757	     -3.00785038	     -0.92765025	    -15.16324850	      1.74640056	     -4.26592064	      3.02097565	      0.86335260
      1.38983333	      0.09991794	     -0.58948695	      0.83155797	      0.30040100	      1.01708449	      0.30594797	     25.43606720	      2.58778719	      0.61583292	    -51.57265376	     -0.14469371	    -19.99913192	     -0.75270194	     -1.96775016	      3.62051997	      3.85256701	     -2.85803485	     -0.73408635	    -15.10106200	      1.74041597	     -4.27187364	      3.09050051	      0.81043081
      1.39400000	      0.14302506	     -0.62674323	      0.90644279	      0.30514442	      1.01707329	      0.30582443	     25.57485667	      2.59786897	      0.62558563	    -50.38268820	     -0.05089167	    -20.09942386	     -0.86641162	     -2.40999488	      3.56485435	      3.91716394	     -2.67813200	     -0.53476422	    -14.98928851	      1.72687563	     -4.36915784	      3.14297522	      0.67996452
      1.39816667	      0.15521931	     -0.67206726	      0.99434089	      0.30989098	      1.01698927	      0.30568756	     25.72575926	      2.60786875	      0.61249385	    -49.15400802	      0.03586187	    -20.18504059	     -0.99071829	     -2.81101041	      3.49912450	      3.98740606	     -2.51258151	     -0.33762277	    -14.89151520	      1.71349003	     -4.42453678	      3.20408695	      0.58467805
      1.40233333	      0.12652086	     -0.70856402	      1.08910963	      0.31463817	      1.01680399	      0.30553962	     25.90770052	      2.59804493	      0.57898943	    -47.90532506	      0.13394548	    -20.22694673	     -1.06706446	     -3.16401503	      3.44385387	      4.06769083	     -2.35341320	     -0.15065386	    -14.82098882	      1.70776786	     -4.42750510	      3.24840847	      0.53331113
